<?xml version="1.0" standalone="no"?><!DOCTYPE svg PUBLIC "-//W3C//DTD SVG 1.1//EN" "http://www.w3.org/Graphics/SVG/1.1/DTD/svg11.dtd"><svg t="1631501483131" class="icon" viewBox="0 0 1024 1024" version="1.1" xmlns="http://www.w3.org/2000/svg" p-id="1153" xmlns:xlink="http://www.w3.org/1999/xlink" width="200" height="200"><defs><style type="text/css"></style></defs><path d="M316.245333 484.821333l150.613334-93.952a85.333333 85.333333 0 0 1 90.325333 0l150.613333 93.952A128 128 0 0 1 768 593.408V725.333333a85.333333 85.333333 0 0 1-85.333333 85.333334H341.333333a85.333333 85.333333 0 0 1-85.333333-85.333334v-131.925333a128 128 0 0 1 60.245333-108.586667z" fill="#E0ECFF" p-id="1154"></path><path d="M449.877333 214.357333l-150.613333 93.994667a160 160 0 0 0-75.264 135.722667V725.333333A117.333333 117.333333 0 0 0 341.333333 842.666667h341.333334A117.333333 117.333333 0 0 0 800 725.333333v-281.258666a160 160 0 0 0-75.306667-135.722667l-150.613333-93.994667a117.333333 117.333333 0 0 0-124.16 0z m90.368 54.314667l150.613334 93.952a96 96 0 0 1 45.141333 81.493333V725.333333c0 29.44-23.893333 53.333333-53.333333 53.333334H341.333333c-29.44 0-53.333333-23.893333-53.333333-53.333334v-281.258666c0-33.109333 17.066667-63.914667 45.184-81.450667l150.613333-93.952a53.333333 53.333333 0 0 1 56.448 0z" fill="#4C93FF" p-id="1155"></path><path d="M544 565.333333a74.666667 74.666667 0 0 1 74.410667 68.522667L618.666667 640v149.333333H554.666667V640a10.666667 10.666667 0 0 0-8.234667-10.368l-2.432-0.298667h-64a10.666667 10.666667 0 0 0-10.368 8.234667L469.333333 640v149.333333H405.333333V640a74.666667 74.666667 0 0 1 68.522667-74.410667l6.144-0.256h64z" fill="#4C93FF" p-id="1156"></path></svg>