<?xml version="1.0" standalone="no"?><!DOCTYPE svg PUBLIC "-//W3C//DTD SVG 1.1//EN" "http://www.w3.org/Graphics/SVG/1.1/DTD/svg11.dtd"><svg t="1631501675269" class="icon" viewBox="0 0 1024 1024" version="1.1" xmlns="http://www.w3.org/2000/svg" p-id="1569" xmlns:xlink="http://www.w3.org/1999/xlink" width="200" height="200"><defs><style type="text/css"></style></defs><path d="M298.666667 412.288h426.666666a85.333333 85.333333 0 0 1 85.333334 85.333333v213.333334a85.333333 85.333333 0 0 1-85.333334 85.333333H298.666667a85.333333 85.333333 0 0 1-85.333334-85.333333v-213.333334a85.333333 85.333333 0 0 1 85.333334-85.333333z" fill="#E0ECFF" p-id="1570"></path><path d="M725.333333 273.621333H298.666667a117.333333 117.333333 0 0 0-117.333334 117.333334v320A117.333333 117.333333 0 0 0 298.666667 828.288h426.666666a117.333333 117.333333 0 0 0 117.333334-117.333333v-320A117.333333 117.333333 0 0 0 725.333333 273.621333z m-426.666666 64h426.666666c29.44 0 53.333333 23.893333 53.333334 53.333334v320c0 29.44-23.893333 53.333333-53.333334 53.333333H298.666667c-29.44 0-53.333333-23.893333-53.333334-53.333333v-320c0-29.44 23.893333-53.333333 53.333334-53.333334z" fill="#4C93FF" p-id="1571"></path><path d="M359.594667 192.512a32 32 0 0 0-48.341334 41.642667l3.114667 3.584 90.496 90.538666a32 32 0 0 0 48.341333-41.685333l-3.072-3.584-90.538666-90.496zM648.789333 192.512a32 32 0 0 1 48.384 41.642667l-3.114666 3.584-90.496 90.538666a32 32 0 0 1-48.384-41.685333l3.114666-3.584 90.496-90.496zM422.4 479.232a74.666667 74.666667 0 0 0-11.306667 39.594667v75.776a74.666667 74.666667 0 0 0 114.218667 63.317333l60.629333-37.888a74.666667 74.666667 0 0 0 0-126.634667l-60.586666-37.888a74.666667 74.666667 0 0 0-99.072 18.133334l-3.84 5.589333z m68.992 30.549333l60.629333 37.888a10.666667 10.666667 0 0 1 0 18.090667l-60.586666 37.888a10.666667 10.666667 0 0 1-16.341334-9.045333V518.826667a10.666667 10.666667 0 0 1 16.298667-9.045334z" fill="#4C93FF" p-id="1572"></path></svg>