<?xml version="1.0" standalone="no"?><!DOCTYPE svg PUBLIC "-//W3C//DTD SVG 1.1//EN" "http://www.w3.org/Graphics/SVG/1.1/DTD/svg11.dtd"><svg t="1619791837943" class="icon" viewBox="0 0 1024 1024" version="1.1" xmlns="http://www.w3.org/2000/svg" p-id="1876" xmlns:xlink="http://www.w3.org/1999/xlink" width="200" height="200"><defs><style type="text/css"></style></defs><path d="M682.666667 160a117.333333 117.333333 0 0 1 117.333333 117.333333v469.333334A117.333333 117.333333 0 0 1 682.666667 864H341.333333a117.333333 117.333333 0 0 1-117.333333-117.333333v-469.333334A117.333333 117.333333 0 0 1 341.333333 160z m0 64H341.333333c-29.44 0-53.333333 23.893333-53.333333 53.333333v469.333334c0 29.44 23.893333 53.333333 53.333333 53.333333h341.333334c29.44 0 53.333333-23.893333 53.333333-53.333333v-469.333334c0-29.44-23.893333-53.333333-53.333333-53.333333z m-128 448a32 32 0 0 1 4.352 63.701333L554.666667 736h-85.333334a32 32 0 0 1-4.352-63.701333L469.333333 672h85.333334z" fill="#333333" p-id="1877"></path><path d="M507.733333 272.64a32 32 0 0 1 31.701334 27.690667l0.298666 4.352v184.490666l36.608-36.565333a32 32 0 0 1 41.984-2.858667l3.285334 2.858667a32 32 0 0 1 2.858666 41.984l-2.858666 3.285333-90.496 90.496a32 32 0 0 1-41.984 2.858667l-3.285334-2.858667-90.496-90.496a32 32 0 0 1 41.941334-48.128l3.285333 2.858667 35.157333 35.114667V304.64a32 32 0 0 1 32-32z" fill="#4C93FF" p-id="1878"></path></svg>